<svg xmlns="http://www.w3.org/2000/svg" width="22" height="22" viewBox="0 0 22 22">
    <g fill="#8E8E93" fill-rule="evenodd">
        <ellipse cx="11" cy="2.745" rx="2.739" ry="2.745"/>
        <path d="M15.103 12.95l-.621-4.853a1.365 1.365 0 0 0-1.362-1.235h-.75a.69.69 0 0 0-.485.2L11 7.95l-.885-.887a.69.69 0 0 0-.485-.2h-.749c-.707 0-1.293.53-1.361 1.217l-.624 4.872a.685.685 0 0 0 .68.772h.74l.572 7a1.366 1.366 0 0 0 1.363 1.234h1.5a1.37 1.37 0 0 0 1.364-1.247l.57-6.987h.74a.682.682 0 0 0 .513-.233.677.677 0 0 0 .165-.54z"/>
        <ellipse cx="17.848" cy="2.745" rx="2.739" ry="2.745"/>
        <path d="M4.152 0a2.745 2.745 0 0 0 0 5.49 2.746 2.746 0 0 0 0-5.49zM21.952 12.95l-.622-4.852a1.365 1.365 0 0 0-1.362-1.236h-.75a.69.69 0 0 0-.485.2l-.885.887-.885-.887a.688.688 0 0 0-.483-.2h-.75c-.086 0-.162.03-.243.045.177.313.315.652.356 1.032l.62 4.836a2.056 2.056 0 0 1-.5 1.628 1.985 1.985 0 0 1-.68.483l.455 4.464c.07.704.656 1.235 1.362 1.235h1.5a1.37 1.37 0 0 0 1.364-1.247l.57-5.615h.738a.682.682 0 0 0 .514-.233.677.677 0 0 0 .166-.54zM6.034 14.396a2.058 2.058 0 0 1-.496-1.618l.623-4.873c.036-.365.17-.695.341-1-.077-.013-.15-.043-.23-.043h-.75a.69.69 0 0 0-.485.2l-.885.887-.885-.887a.688.688 0 0 0-.484-.2h-.75c-.707 0-1.293.53-1.362 1.217l-.623 4.872a.685.685 0 0 0 .68.772h.74l.572 5.627a1.366 1.366 0 0 0 1.362 1.235h1.5a1.37 1.37 0 0 0 1.364-1.247l.455-4.454a2.054 2.054 0 0 1-.687-.488z"/>
    </g>
</svg>
